{"title":"Outbreak Company - 07 (1280x720 h264 AAC) [d814c008].mp4","uid":9224283,"size":206136106,"categoryP":"video","categoryS":"tv_shows","magnet":"?xt=urn:btih:7f1ba58444b0dd0825642d2dd9449f400993892f&amp;dn=Outbreak+Company+-+07+%281280x720+h264+AAC%29+%5Bd814c008%5D.mp4&amp;tr=udp%3A%2F%2Ftracker.openbittorrent.com%3A80&amp;tr=udp%3A%2F%2Fopen.demonii.com%3A1337&amp;tr=udp%3A%2F%2Ftracker.coppersurfer.tk%3A6969&amp;tr=udp%3A%2F%2Fexodus.desync.com%3A6969","seeders":1,"leechers":0,"uploader":null,"files":-1,"time":1384984038,"description":"Title: Outbreak Company\nEpisode: 07\n\n\nFormat                         : MPEG-4\nFormat profile                 : Base Media\nCodec ID                       : isom\nFile size                      : 197 MiB\nDuration                       : 24mn 9s\nOverall bit rate mode          : Variable\nOverall bit rate               : 1 138 Kbps\n\n\nVideo\n\nID                             : 1\nFormat                         : AVC\nFormat/Info                    : Advanced Video Codec\nFormat profile                 : &lt;a class=&quot;__cf_email__&quot; href=&quot;/cdn-cgi/l/email-protection&quot; data-cfemail=&quot;5c14353b341c1068726d&quot;&gt;[email&amp;#160;protected]&lt;/a&gt;&lt;script cf-hash='f9e31' type=&quot;text/javascript&quot;&gt;\n/* &lt;![CDATA[ */!function(){try{var t=&quot;currentScript&quot;in document?document.currentScript:function(){for(var t=document.getElementsByTagName(&quot;script&quot;),e=t.length;e--;)if(t[e].getAttribute(&quot;cf-hash&quot;))return t[e]}();if(t&amp;&amp;t.previousSibling){var e,r,n,i,c=t.previousSibling,a=c.getAttribute(&quot;data-cfemail&quot;);if(a){for(e=&quot;&quot;,r=parseInt(a.substr(0,2),16),n=2;a.length-n;n+=2)i=parseInt(a.substr(n,2),16)^r,e+=String.fromCharCode(i);e=document.createTextNode(e),c.parentNode.replaceChild(e,c)}}}catch(u){}}();/* ]]&gt; */&lt;/script&gt;\nFormat settings, CABAC         : Yes\nFormat settings, ReFrames      : 6 frames\nCodec ID                       : avc1\nCodec ID/Info                  : Advanced Video Coding\nDuration                       : 24mn 9s\nBit rate                       : 974 Kbps\nMaximum bit rate               : 7 155 Kbps\nWidth                          : 1 280 pixels\nHeight                         : 720 pixels\nDisplay aspect ratio           : 16:9\nFrame rate mode                : Constant\nFrame rate                     : 23.976 fps\nColor space                    : YUV\nChroma subsampling             : 4:2:0\nBit depth                      : 8 bits\nScan type                      : Progressive\nBits/(Pixel*Frame)             : 0.044\nStream size                    : 168 MiB (86%)\n\n\nAudio\n\nID                             : 2\nFormat                         : AAC\nFormat/Info                    : Advanced Audio Codec\nFormat profile                 : LC\nCodec ID                       : 40\nDuration                       : 24mn 9s\nBit rate mode                  : Variable\nBit rate                       : 160 Kbps\nMaximum bit rate               : 169 Kbps\nChannel count                  : 2 channels\nChannel positions              : Front: L R\nSampling rate                  : 48.0 KHz\nCompression mode               : Lossy\nDelay relative to video        : 83ms\nStream size                    : 27.6 MiB (14%)\n\n\nscreen-caps: &lt;a href=&quot;\nhttp://i.imgur.com/LR52PII.jpg&quot; rel=&quot;nofollow&quot; target=&quot;_NEW&quot;&gt;\nhttp://i.imgur.com/LR52PII.jpg&lt;/a&gt;","torrent":{"xt":"urn:btih:7f1ba58444b0dd0825642d2dd9449f400993892f","amp;dn":"Outbreak+Company+-+07+%281280x720+h264+AAC%29+%5Bd814c008%5D.mp4","amp;tr":["udp%3A%2F%2Ftracker.openbittorrent.com%3A80","udp%3A%2F%2Fopen.demonii.com%3A1337","udp%3A%2F%2Ftracker.coppersurfer.tk%3A6969","udp%3A%2F%2Fexodus.desync.com%3A6969"],"infoHash":"7f1ba58444b0dd0825642d2dd9449f400993892f","infoHashBuffer":{"type":"Buffer","data":[127,27,165,132,68,176,221,8,37,100,45,45,217,68,159,64,9,147,137,47]},"announce":[],"urlList":[]}}